<?xml version="1.0" encoding="UTF-8"?>
<svg version="1.1" xmlns="http://www.w3.org/2000/svg" width="152" height="91">
<path d="M0 0 C50.16 0 100.32 0 152 0 C152 30.03 152 60.06 152 91 C101.84 91 51.68 91 0 91 C0 60.97 0 30.94 0 0 Z " fill="#4B2903" transform="translate(0,0)"/>
<path d="M0 0 C50.16 0 100.32 0 152 0 C152 30.03 152 60.06 152 91 C101.84 91 51.68 91 0 91 C0 60.97 0 30.94 0 0 Z M27 1 C27 7.27 27 13.54 27 20 C18.75 20 10.5 20 2 20 C2 42.77 2 65.54 2 89 C22.13 89 42.26 89 63 89 C59.75290202 85.75290202 57.2695281 83.76799872 53.4375 81.4375 C50.2485746 79.49472184 47.58717304 77.67957208 45 75 C41.61554014 73.35116058 39.86245304 73 36 73 C42.32851832 62.04228773 49.92977949 52.4116991 62.359375 48.6953125 C73.98741816 46.47450597 86.22716686 46.80272477 97 52 C98.15822266 52.54914062 98.15822266 52.54914062 99.33984375 53.109375 C107.01459938 57.47953462 111.87734015 65.01020245 117 72 C115.80375 72.28875 114.6075 72.5775 113.375 72.875 C106.58228316 75.09611059 101.22562585 79.6280277 95.58007812 83.8671875 C94.13186035 84.90546477 92.60685745 85.83439554 91.078125 86.75 C90.39234375 87.1625 89.7065625 87.575 89 88 C89 88.33 89 88.66 89 89 C109.46 89 129.92 89 151 89 C151 66.23 151 43.46 151 20 C142.75 20 134.5 20 126 20 C126 13.73 126 7.46 126 1 C125.34 1 124.68 1 124 1 C124 7.27 124 13.54 124 20 C119.96458984 19.89171875 119.96458984 19.89171875 115.84765625 19.78125 C113.17978242 19.71121846 110.51188971 19.64195208 107.84399414 19.57275391 C106.02007993 19.52504685 104.19618562 19.47657122 102.37231445 19.42724609 C83.86549239 18.92775048 65.44284543 18.97092076 46.9375 19.5 C45.18425066 19.54839014 43.43099545 19.59656821 41.67773438 19.64453125 C37.45173555 19.76020276 33.22589113 19.88017726 29 20 C29 13.73 29 7.46 29 1 C28.34 1 27.68 1 27 1 Z " fill="#F9F9F9" transform="translate(0,0)"/>
<path d="M0 0 C6.13667462 4.36561227 10.98887994 10.54231136 15.4375 16.5625 C15.4375 17.2225 15.4375 17.8825 15.4375 18.5625 C14.85742188 18.80484375 14.27734375 19.0471875 13.6796875 19.296875 C8.90263347 21.34643614 4.66039611 23.53067715 0.4375 26.5625 C0.1075 25.5725 -0.2225 24.5825 -0.5625 23.5625 C0.4275 23.0675 0.4275 23.0675 1.4375 22.5625 C-1.49879323 21.7191342 -4.10888126 21.43616562 -7.15991211 21.43310547 C-8.06442612 21.42995331 -8.96894012 21.42680115 -9.90086365 21.42355347 C-10.87072708 21.4255777 -11.84059052 21.42760193 -12.83984375 21.4296875 C-13.84334366 21.42873077 -14.84684357 21.42777405 -15.88075256 21.42678833 C-18.00147565 21.42610832 -20.12220084 21.42795015 -22.24291992 21.43212891 C-25.48425999 21.43747404 -28.72546114 21.43218073 -31.96679688 21.42578125 C-34.02864614 21.42644217 -36.09049532 21.42772363 -38.15234375 21.4296875 C-39.12018295 21.42766327 -40.08802216 21.42563904 -41.08518982 21.42355347 C-41.99285599 21.42670563 -42.90052216 21.42985779 -43.83569336 21.43310547 C-45.02671913 21.43429886 -45.02671913 21.43429886 -46.24180603 21.43551636 C-48.78723964 21.57479729 -51.10109807 21.8927071 -53.5625 22.5625 C-53.8925 23.2225 -54.2225 23.8825 -54.5625 24.5625 C-55.26375 24.10875 -55.965 23.655 -56.6875 23.1875 C-59.59234591 21.54563057 -62.3764348 20.52572901 -65.5625 19.5625 C-64.40251636 11.70038869 -55.72113786 3.85154951 -49.75 -1 C-35.24279491 -10.5333062 -14.42941301 -8.39391161 0 0 Z " fill="#ECBA30" transform="translate(101.5625,53.4375)"/>
<path d="M0 0 C1.65 0 3.3 0 5 0 C5 1.98 5 3.96 5 6 C5.99 6.33 6.98 6.66 8 7 C9.80795432 11.0916861 10.21156222 14.55719328 10 19 C10.66 19 11.32 19 12 19 C12.10957031 19.86882813 12.21914062 20.73765625 12.33203125 21.6328125 C13.58418204 32.05292626 13.58418204 32.05292626 19.5625 40.3125 C21.8644712 41.99116117 21.8644712 41.99116117 24 43 C24.625 45.5625 24.625 45.5625 25 48 C25.556875 48.103125 26.11375 48.20625 26.6875 48.3125 C29 49 29 49 31.125 50.3125 C33.66014791 51.8005216 35.87773181 52.70509081 38.625 53.6875 C44.84774688 56.09300961 49.73334141 59.98613031 55 64 C56.22051701 64.82543636 57.44779502 65.64117186 58.6875 66.4375 C59.450625 66.953125 60.21375 67.46875 61 68 C61 68.33 61 68.66 61 69 C40.87 69 20.74 69 0 69 C0 46.23 0 23.46 0 0 Z " fill="#050302" transform="translate(2,20)"/>
<path d="M0 0 C0 22.77 0 45.54 0 69 C-20.46 69 -40.92 69 -62 69 C-59.28111904 66.28111904 -56.93618099 64.61105394 -53.6875 62.625 C-50.50408874 60.6489455 -47.55496235 58.74056578 -44.8125 56.1875 C-41.23574142 53.40557666 -38.39147195 52.96761246 -34 52 C-33.67 51.34 -33.34 50.68 -33 50 C-31.906875 49.855625 -30.81375 49.71125 -29.6875 49.5625 C-25.98707644 48.99802861 -24.75329754 48.34540161 -22 46 C-21.34 46 -20.68 46 -20 46 C-19.7525 45.2575 -19.505 44.515 -19.25 43.75 C-17.89534961 40.76976913 -16.4898459 39.10080748 -14 37 C-13.34 37 -12.68 37 -12 37 C-11.36013187 33.72067584 -11 30.72501579 -11 27.375 C-11 24.61861639 -10.82942766 22.59196144 -10 20 C-10.66 20 -11.32 20 -12 20 C-11.690625 19.29875 -11.38125 18.5975 -11.0625 17.875 C-9.8790221 15.01515914 -9.8790221 15.01515914 -9.625 11.875 C-8.85894493 8.35114666 -7.82339849 8.02931766 -5 6 C-4.35232207 3.42938689 -4.35232207 3.42938689 -4 1 C-2 0 -2 0 0 0 Z " fill="#020101" transform="translate(151,20)"/>
<path d="M0 0 C9.57 0 19.14 0 29 0 C28.01 0.495 28.01 0.495 27 1 C27 7.27 27 13.54 27 20 C18.75 20 10.5 20 2 20 C2 42.77 2 65.54 2 89 C21.8 88.67 41.6 88.34 62 88 C58.37 85.69 54.74 83.38 51 81 C50.01 80.34 49.02 79.68 48 79 C48 78.01 48 77.02 48 76 C49.32 76 50.64 76 52 76 C52.33 75.34 52.66 74.68 53 74 C59.45954549 73.9746206 65.9190781 73.95712072 72.37866211 73.94506836 C74.5756071 73.94004325 76.77254876 73.93322212 78.96948242 73.92456055 C82.12940292 73.91241525 85.28927915 73.90675341 88.44921875 73.90234375 C89.42960617 73.89718246 90.40999359 73.89202118 91.42008972 73.88670349 C92.34066666 73.88662796 93.26124359 73.88655243 94.2097168 73.88647461 C95.0157988 73.884254 95.8218808 73.88203339 96.65238953 73.87974548 C99.18086474 74.00926466 101.53226148 74.44726175 104 75 C101.55796145 81.83770795 96.23903922 84.88048039 90 88 C120.195 88.495 120.195 88.495 151 89 C151 89.33 151 89.66 151 90 C101.17 90.33 51.34 90.66 0 91 C0 60.97 0 30.94 0 0 Z " fill="#D3D3D2" transform="translate(0,0)"/>
<path d="M0 0 C0.268125 0.639375 0.53625 1.27875 0.8125 1.9375 C1.88667752 4.33131686 1.88667752 4.33131686 5 5 C5 5.66 5 6.32 5 7 C6.0725 6.835 7.145 6.67 8.25 6.5 C12 6 12 6 16 6 C16 5.34 16 4.68 16 4 C16.86625 4.020625 17.7325 4.04125 18.625 4.0625 C21.86206533 4.00255435 24.82113129 3.57797613 28 3 C28.66 3 29.32 3 30 3 C33.11677617 2.71586192 36.23237093 2.42113907 39.34765625 2.12109375 C40.22292969 2.08113281 41.09820312 2.04117188 42 2 C43 3 43 3 43.33984375 5.6953125 C42.90034645 9.96904484 41.35593136 11.6588497 38.5625 14.875 C37.73878906 15.84179688 36.91507813 16.80859375 36.06640625 17.8046875 C35.38449219 18.52914062 34.70257813 19.25359375 34 20 C33.67 20 33.34 20 33 20 C33 17.36 33 14.72 33 12 C32.34 12.33 31.68 12.66 31 13 C31.11601563 13.87140625 31.23203125 14.7428125 31.3515625 15.640625 C31.85614852 22.3011605 31.73616304 26.92881309 27.52099609 32.17871094 C25.42111123 34.54227495 23.26236545 36.78955769 21 39 C20.34 39.66 19.68 40.32 19 41 C16.20017373 39.85838519 13.52292739 38.67656073 11 37 C10.3125 34.375 10.3125 34.375 10 32 C7.6569191 30.87914688 7.6569191 30.87914688 5 30 C1.7408895 27.29959415 0.2336124 25.02801265 -1 21 C-1.25954565 17.95352376 -1.23409048 14.93035434 -1.1875 11.875 C-1.1865332 10.65876953 -1.1865332 10.65876953 -1.18554688 9.41796875 C-1.15976277 5.95143959 -1.10712428 3.32137284 0 0 Z " fill="#E6A126" transform="translate(16,31)"/>
<path d="M0 0 C2.96215299 1.99773108 4.77466493 3.79610624 6.6875 6.8125 C6.6875 8.1325 6.6875 9.4525 6.6875 10.8125 C7.3475 10.8125 8.0075 10.8125 8.6875 10.8125 C8.1148599 9.5575653 7.52878945 8.30875622 6.9375 7.0625 C6.45023438 6.01835937 6.45023438 6.01835937 5.953125 4.953125 C4.50073585 2.29399865 4.50073585 2.29399865 0.6875 -1.1875 C11.5775 -1.1875 22.4675 -1.1875 33.6875 -1.1875 C32.23356864 1.72036272 31.06896083 3.78440074 29.12109375 6.265625 C28.63576172 6.884375 28.15042969 7.503125 27.65039062 8.140625 C27.14701172 8.77484375 26.64363281 9.4090625 26.125 10.0625 C25.61775391 10.7121875 25.11050781 11.361875 24.58789062 12.03125 C23.31401864 13.64606509 22.00380802 15.23208524 20.6875 16.8125 C20.3575 16.8125 20.0275 16.8125 19.6875 16.8125 C19.3575 15.1625 19.0275 13.5125 18.6875 11.8125 C14.7275 11.8125 10.7675 11.8125 6.6875 11.8125 C6.3575 12.4725 6.0275 13.1325 5.6875 13.8125 C4.965625 13.626875 4.24375 13.44125 3.5 13.25 C0.53911574 12.789418 -1.41388695 13.20226567 -4.3125 13.8125 C-5.3025 13.4825 -6.2925 13.1525 -7.3125 12.8125 C-7.3125 13.4725 -7.3125 14.1325 -7.3125 14.8125 C-10.98660785 15.98821451 -14.48179183 15.88616746 -18.3125 15.8125 C-18.3125 15.1525 -18.3125 14.4925 -18.3125 13.8125 C-19.6325 13.4825 -20.9525 13.1525 -22.3125 12.8125 C-23.25569771 9.81141636 -23.46830255 8.2383603 -22.375 5.25 C-16.56601496 -1.61516414 -8.25292981 -2.95859748 0 0 Z " fill="#C8541C" transform="translate(39.3125,22.1875)"/>
<path d="M0 0 C1.588125 0.886875 3.17625 1.77375 4.8125 2.6875 C22.98552651 12.56617082 41.89859521 18.15690489 62.703125 14.31640625 C65.89334417 13.36955549 68.92225329 12.26456091 72 11 C73.19496094 10.52949219 74.38992187 10.05898437 75.62109375 9.57421875 C82.17055775 6.8920573 88.1162433 3.92250446 94 0 C94.33 0 94.66 0 95 0 C95 5.94 95 11.88 95 18 C63.65 18 32.3 18 0 18 C0 12.06 0 6.12 0 0 Z " fill="#B3B1B0" transform="translate(29,2)"/>
<path d="M0 0 C10.56 0 21.12 0 32 0 C32 13.53 32 27.06 32 41 C26.3814433 35.3814433 26.3814433 35.3814433 23.90625 32.13671875 C23.35662598 31.42193359 22.80700195 30.70714844 22.24072266 29.97070312 C21.66628418 29.21724609 21.0918457 28.46378906 20.5 27.6875 C15.10352013 20.66181231 9.59577819 13.74784182 3.91210938 6.9519043 C0 2.21538764 0 2.21538764 0 0 Z " fill="#D37622" transform="translate(80,21)"/>
<path d="M0 0 C6.60196104 -0.02537644 13.20390948 -0.04287804 19.8059082 -0.05493164 C22.05135569 -0.05995719 24.29679992 -0.06677865 26.54223633 -0.07543945 C29.77165534 -0.08758281 33.00103105 -0.09324614 36.23046875 -0.09765625 C37.23272995 -0.10281754 38.23499115 -0.10797882 39.2676239 -0.11329651 C40.67852043 -0.11340981 40.67852043 -0.11340981 42.11791992 -0.11352539 C42.94176682 -0.115746 43.76561371 -0.11796661 44.61442566 -0.12025452 C47.15755317 0.0079421 49.51840931 0.44270612 52 1 C49.55796145 7.83770795 44.23903922 10.88048039 38 14 C33.52857109 14.38292047 29.04803962 14.41798912 24.5625 14.5 C22.71108398 14.58121094 22.71108398 14.58121094 20.82226562 14.6640625 C11.57700722 14.80095686 6.23932849 12.65635668 -1 7 C-1.99 6.34 -2.98 5.68 -4 5 C-4 4.01 -4 3.02 -4 2 C-2.68 2 -1.36 2 0 2 C0 1.34 0 0.68 0 0 Z " fill="#FBF1CE" transform="translate(52,74)"/>
<path d="M0 0 C10.96975218 -0.72704011 20.9283944 1.84102462 31.42260742 4.72070312 C33.85290246 5.31925695 33.85290246 5.31925695 37.56640625 5.1796875 C36.27544978 9.1959965 33.86066794 10.39953344 30.3203125 12.25 C28.31073948 13.27760479 28.31073948 13.27760479 25.56640625 15.1796875 C25.07140625 13.6946875 25.07140625 13.6946875 24.56640625 12.1796875 C25.22640625 11.8496875 25.88640625 11.5196875 26.56640625 11.1796875 C23.63011302 10.3363217 21.02002499 10.05335312 17.96899414 10.05029297 C17.06448013 10.04714081 16.15996613 10.04398865 15.2280426 10.04074097 C14.25817917 10.0427652 13.28831573 10.04478943 12.2890625 10.046875 C11.28556259 10.04591827 10.28206268 10.04496155 9.24815369 10.04397583 C7.1274306 10.04329582 5.00670541 10.04513765 2.88598633 10.04931641 C-0.35535374 10.05466154 -3.59655489 10.04936823 -6.83789062 10.04296875 C-8.89973989 10.04362967 -10.96158907 10.04491113 -13.0234375 10.046875 C-13.9912767 10.04485077 -14.95911591 10.04282654 -15.95628357 10.04074097 C-16.86394974 10.04389313 -17.77161591 10.04704529 -18.70678711 10.05029297 C-19.89781288 10.05148636 -19.89781288 10.05148636 -21.11289978 10.05270386 C-23.65833339 10.19198479 -25.97219182 10.5098946 -28.43359375 11.1796875 C-28.76359375 11.8396875 -29.09359375 12.4996875 -29.43359375 13.1796875 C-30.13484375 12.7259375 -30.83609375 12.2721875 -31.55859375 11.8046875 C-34.46343966 10.16281807 -37.24752855 9.14291651 -40.43359375 8.1796875 C-40.04022256 5.89813457 -39.52073164 4.31268743 -38.24609375 2.3671875 C-35.54583356 0.59805152 -33.56365581 1.65088982 -30.43359375 2.1796875 C-28.36984309 2.13170108 -26.30687428 2.01488003 -24.25 1.83984375 C-23.08283447 1.74582275 -21.91566895 1.65180176 -20.71313477 1.55493164 C-19.48651123 1.45172607 -18.2598877 1.34852051 -16.99609375 1.2421875 C-11.33149392 0.81744175 -5.66506772 0.4182875 0 0 Z " fill="#EDCF78" transform="translate(76.43359375,64.8203125)"/>
<path d="M0 0 C1.7668765 11.94828366 1.7668765 11.94828366 -1.1875 16 C-2.115625 16.66 -3.04375 17.32 -4 18 C-5.33827304 19.66270287 -6.67189785 21.32916181 -8 23 C-11.37009737 26.69623582 -14.58599351 29.47009614 -19.5625 30.5625 C-22.59576323 29.86251618 -23.54541777 28.54829413 -25.17749023 25.9675293 C-26.8283319 22.01854354 -26.40598768 17.83066771 -26.25 13.625 C-26.23195313 12.69816406 -26.21390625 11.77132812 -26.1953125 10.81640625 C-26.14844197 8.54318565 -26.08285525 6.27214593 -26 4 C-24.78183594 3.96261719 -23.56367187 3.92523438 -22.30859375 3.88671875 C-20.6848671 3.82101883 -19.06117051 3.75457291 -17.4375 3.6875 C-16.63763672 3.66494141 -15.83777344 3.64238281 -15.01367188 3.61914062 C-9.87021572 3.38820994 -4.58198873 0 0 0 Z " fill="#EBB22D" transform="translate(140,41)"/>
<path d="M0 0 C0.99 0 1.98 0 3 0 C4.63654975 1.8380652 6.06372614 3.63851318 7.5 5.625 C8.38435269 6.81459379 9.26981054 8.00336662 10.15625 9.19140625 C10.61773437 9.81418457 11.07921875 10.43696289 11.5546875 11.07861328 C14.42489872 14.89424881 17.42839988 18.60772778 20.41992188 22.32861328 C22.6207053 25.10059857 24.5960972 27.73752134 26 31 C23.265625 29.53515625 23.265625 29.53515625 20.53125 28.0703125 C13.59114598 25.13576235 7.00429156 24.63573077 -0.4375 24.625 C-1.32759766 24.60050781 -2.21769531 24.57601562 -3.13476562 24.55078125 C-8.94141756 24.52533208 -13.06383109 25.51294194 -18.20727539 28.23583984 C-18.79887451 28.4880127 -19.39047363 28.74018555 -20 29 C-20.66 28.67 -21.32 28.34 -22 28 C-21.16597656 26.98421875 -20.33195312 25.9684375 -19.47265625 24.921875 C-18.33546526 23.53163615 -17.1987819 22.14098198 -16.0625 20.75 C-15.47291504 20.02941406 -14.88333008 19.30882813 -14.27587891 18.56640625 C-9.91180845 13.20181597 -5.78794256 7.71421284 -1.8046875 2.0625 C-1.20914063 1.381875 -0.61359375 0.70125 0 0 Z " fill="#DD8D29" transform="translate(75,21)"/>
<path d="M0 0 C3.17625 -0.0825 6.3525 -0.165 9.625 -0.25 C10.6145166 -0.28641602 11.6040332 -0.32283203 12.62353516 -0.36035156 C18.43180489 -0.43314573 21.53991344 0.21830848 26 4 C27.64156736 5.64156736 27.28815992 7.49215801 27.375 9.75 C27.34625622 13.76838108 27.20786301 14.72472196 24.6875 18.0625 C21.19569333 20.579849 18.74359088 21.12579591 14.55078125 21.09765625 C13.78677002 21.09515869 13.02275879 21.09266113 12.2355957 21.09008789 C11.27097412 21.08098389 10.30635254 21.07187988 9.3125 21.0625 C4.7028125 21.0315625 4.7028125 21.0315625 0 21 C0 14.07 0 7.14 0 0 Z " fill="#C7501B" transform="translate(114,22)"/>
<path d="M0 0 C1.24546405 2.49092811 0.7767578 3.41080733 0 6 C0.66 6.33 1.32 6.66 2 7 C2.61875 6.505 3.2375 6.01 3.875 5.5 C6 4 6 4 8 4 C8 4.99 8 5.98 8 7 C8.639375 6.484375 9.27875 5.96875 9.9375 5.4375 C13.21595393 3.89863387 13.97055814 3.94714192 17.375 4.5 C21.30161523 5.10409465 23.25881468 4.63047576 26.8359375 2.765625 C31.04062005 1.27804778 35.56700435 1.40827398 39.98828125 1.2109375 C42.92170692 1.198992 42.92170692 1.198992 45 0 C46.54023996 -0.06950541 48.08334988 -0.08452357 49.625 -0.0625 C50.85089844 -0.04896484 50.85089844 -0.04896484 52.1015625 -0.03515625 C52.72804687 -0.02355469 53.35453125 -0.01195312 54 0 C54 0.66 54 1.32 54 2 C55.32 1.34 56.64 0.68 58 0 C63.31954226 3.1138784 67.35122113 7.01261586 71 12 C71 12.66 71 13.32 71 14 C69.68 14.33 68.36 14.66 67 15 C67 14.34 67 13.68 67 13 C66.18917969 12.89042969 65.37835938 12.78085938 64.54296875 12.66796875 C59.09447602 11.88780041 53.87588908 11.04609743 48.625 9.375 C36.59108628 5.92783323 22.54350501 8.25268107 10.29516602 9.37182617 C8.33996151 9.54763087 6.38285588 9.70187555 4.42578125 9.85546875 C3.28536377 9.95496826 2.14494629 10.05446777 0.9699707 10.15698242 C-2.37769634 9.98003627 -3.59859647 9.26715675 -6 7 C-4.02 4.69 -2.04 2.38 0 0 Z " fill="#ECC350" transform="translate(46,58)"/>
<path d="M0 0 C0.268125 0.639375 0.53625 1.27875 0.8125 1.9375 C1.88667752 4.33131686 1.88667752 4.33131686 5 5 C5 5.66 5 6.32 5 7 C6.0725 6.835 7.145 6.67 8.25 6.5 C12 6 12 6 16 6 C16 5.34 16 4.68 16 4 C16.86625 4.020625 17.7325 4.04125 18.625 4.0625 C21.86206533 4.00255435 24.82113129 3.57797613 28 3 C28.66 3 29.32 3 30 3 C33.11677617 2.71586192 36.23237093 2.42113907 39.34765625 2.12109375 C40.22292969 2.08113281 41.09820312 2.04117188 42 2 C43 3 43 3 43.33984375 5.6953125 C42.90034645 9.96904484 41.35593136 11.6588497 38.5625 14.875 C37.73878906 15.84179688 36.91507813 16.80859375 36.06640625 17.8046875 C35.38449219 18.52914062 34.70257813 19.25359375 34 20 C33.67 20 33.34 20 33 20 C33 17.36 33 14.72 33 12 C32.34 12.66 31.68 13.32 31 14 C28.75341797 14.22705078 28.75341797 14.22705078 25.9921875 14.1953125 C25.00605469 14.18886719 24.01992188 14.18242188 23.00390625 14.17578125 C21.45509766 14.15064453 21.45509766 14.15064453 19.875 14.125 C18.83472656 14.11597656 17.79445313 14.10695313 16.72265625 14.09765625 C14.14820908 14.07403747 11.57421788 14.04110149 9 14 C9 14.66 9 15.32 9 16 C8.01 16.33 7.02 16.66 6 17 C6 16.01 6 15.02 6 14 C5.34 14 4.68 14 4 14 C3.67 13.34 3.34 12.68 3 12 C2.01 11.67 1.02 11.34 0 11 C-1.125 3.375 -1.125 3.375 0 0 Z " fill="#D67723" transform="translate(16,31)"/>
<path d="M0 0 C0.66 0 1.32 0 2 0 C2 6.27 2 12.54 2 19 C4.54589844 18.9278125 7.09179688 18.855625 9.71484375 18.78125 C12.24371867 18.71118898 14.77261456 18.64193566 17.30151367 18.57275391 C19.02842506 18.5250907 20.75531435 18.47661818 22.48217773 18.42724609 C33.99166427 18.09888229 45.48581782 17.93283471 57 18 C57.495 18.99 57.495 18.99 58 20 C51.375 21.125 51.375 21.125 48 20 C47.505 21.485 47.505 21.485 47 23 C46.505 21.515 46.505 21.515 46 20 C30.655 20.495 30.655 20.495 15 21 C17.475 23.97 17.475 23.97 20 27 C20.8125 29.875 20.8125 29.875 21 32 C20.34 32 19.68 32 19 32 C18.4121875 30.3603125 18.4121875 30.3603125 17.8125 28.6875 C16.27825814 25.07107276 14.619806 23.67067969 11 22 C10.34 21.67 9.68 21.34 9 21 C3.16761678 20.39343214 -0.86256008 20.99271809 -6 24 C-6.66 24 -7.32 24 -8 24 C-11.03153319 31.64473588 -11.6623226 38.814234 -12 47 C-12.33 47 -12.66 47 -13 47 C-13 44.03 -13 41.06 -13 38 C-13.66 38 -14.32 38 -15 38 C-15.19335938 37.14535156 -15.38671875 36.29070313 -15.5859375 35.41015625 C-15.84632812 34.30542969 -16.10671875 33.20070312 -16.375 32.0625 C-16.63023438 30.96035156 -16.88546875 29.85820312 -17.1484375 28.72265625 C-17.42945313 27.82417969 -17.71046875 26.92570312 -18 26 C-18.66 25.67 -19.32 25.34 -20 25 C-20 23.02 -20 21.04 -20 19 C-13.4 19 -6.8 19 0 19 C0 12.73 0 6.46 0 0 Z " fill="#482112" transform="translate(27,1)"/>
<path d="M0 0 C10.56 0 21.12 0 32 0 C32 4.95 32 9.9 32 15 C31.01 13.68 30.02 12.36 29 11 C28.34 10.34 27.68 9.68 27 9 C21.76948328 9.30106106 21.76948328 9.30106106 16.9375 11.0625 C13.53654938 12.70812127 11.7374893 12.74749786 8 12 C4.8828378 8.97564297 2.31694826 5.67100893 0 2 C0 1.34 0 0.68 0 0 Z " fill="#CB591D" transform="translate(80,21)"/>
<path d="M0 0 C0.99 0 1.98 0 3 0 C3.33 2.31 3.66 4.62 4 7 C3.67 6.01 3.34 5.02 3 4 C2.01 4.33 1.02 4.66 0 5 C0.66 5.33 1.32 5.66 2 6 C2 7.65 2 9.3 2 11 C1.34 11 0.68 11 0 11 C0 11.66 0 12.32 0 13 C-0.99 13 -1.98 13 -3 13 C-3 13.66 -3 14.32 -3 15 C-16.74485942 15.40033571 -16.74485942 15.40033571 -21 13 C-23.06278379 9.7683054 -24 7.84323789 -24 4 C-23.38511719 3.95101562 -22.77023438 3.90203125 -22.13671875 3.8515625 C-21.32847656 3.77679688 -20.52023438 3.70203125 -19.6875 3.625 C-18.88699219 3.55539063 -18.08648437 3.48578125 -17.26171875 3.4140625 C-14.72775559 3.10435574 -14.72775559 3.10435574 -12 1 C-9.3359375 0.83984375 -9.3359375 0.83984375 -6.375 0.9375 C-4.58402787 0.99155821 -2.79167135 1.02042622 -1 1 C-0.67 0.67 -0.34 0.34 0 0 Z " fill="#EEB62A" transform="translate(41,46)"/>
<path d="M0 0 C2.40667667 -0.00217755 4.81288686 -0.02037256 7.21948242 -0.03930664 C17.37823121 -0.07480355 27.19786451 0.66074132 37.2409668 2.18530273 C37.2409668 2.84530273 37.2409668 3.50530273 37.2409668 4.18530273 C35.51570638 5.16186523 33.79044596 6.13842773 32.06518555 7.11499023 C30.4211439 8.07958854 28.82696091 9.12797332 27.2409668 10.18530273 C26.7459668 8.70030273 26.7459668 8.70030273 26.2409668 7.18530273 C26.9009668 6.85530273 27.5609668 6.52530273 28.2409668 6.18530273 C25.30467357 5.34193693 22.69458554 5.05896836 19.64355469 5.0559082 C18.73904068 5.05275604 17.83452667 5.04960388 16.90260315 5.0463562 C15.93273972 5.04838043 14.96287628 5.05040466 13.96362305 5.05249023 C12.96012314 5.05153351 11.95662323 5.05057678 10.92271423 5.04959106 C8.80199114 5.04891105 6.68126596 5.05075288 4.56054688 5.05493164 C1.3192068 5.06027678 -1.92199435 5.05498346 -5.16333008 5.04858398 C-7.22517934 5.04924491 -9.28702852 5.05052636 -11.34887695 5.05249023 C-12.31671616 5.050466 -13.28455536 5.04844177 -14.28172302 5.0463562 C-15.18938919 5.04950836 -16.09705536 5.05266052 -17.03222656 5.0559082 C-17.82624374 5.0567038 -18.62026093 5.05749939 -19.43833923 5.05831909 C-21.98377284 5.19760003 -24.29763127 5.51550983 -26.7590332 6.18530273 C-27.0890332 6.84530273 -27.4190332 7.50530273 -27.7590332 8.18530273 C-29.0790332 6.53530273 -30.3990332 4.88530273 -31.7590332 3.18530273 C-21.98888275 -1.07043348 -10.48724955 -0.0010575 0 0 Z " fill="#F0D68A" transform="translate(74.759033203125,69.814697265625)"/>
<path d="M0 0 C10.89 0 21.78 0 33 0 C31.31626595 3.3674681 29.68918436 5.83584191 27.375 8.75 C26.74335937 9.54921875 26.11171875 10.3484375 25.4609375 11.171875 C24.97882813 11.77515625 24.49671875 12.3784375 24 13 C22.046875 12.44661458 20.09375 11.89322917 18.140625 11.33984375 C15.76180086 10.96218371 14.30410486 11.40524123 12 12 C11.01 11.67 10.02 11.34 9 11 C9 10.34 9 9.68 9 9 C8.34 9 7.68 9 7 9 C5.63636792 7.02053408 4.30581356 5.0180755 3 3 C2.01 2.01 1.02 1.02 0 0 Z " fill="#C8501B" transform="translate(40,21)"/>
<path d="M0 0 C9.9 0 19.8 0 30 0 C30.33 0.99 30.66 1.98 31 3 C31.66 3 32.32 3 33 3 C33.495 4.98 33.495 4.98 34 7 C31.18175808 8.40912096 28.82748718 8.11183553 25.6796875 8.09765625 C24.42285156 8.09443359 23.16601562 8.09121094 21.87109375 8.08789062 C20.55238281 8.07951172 19.23367187 8.07113281 17.875 8.0625 C16.53515789 8.05748489 15.195314 8.05292201 13.85546875 8.04882812 C10.57026794 8.03701086 7.28515603 8.02053617 4 8 C3.566875 7.0409375 3.566875 7.0409375 3.125 6.0625 C2.17176549 3.84793921 2.17176549 3.84793921 0 3 C0 2.01 0 1.02 0 0 Z " fill="#FDF8E7" transform="translate(58,80)"/>
<path d="M0 0 C0 5.94 0 11.88 0 18 C-8.25 18 -16.5 18 -25 18 C-21.53648974 14.53648974 -18.23562228 12.08909268 -14.125 9.5625 C-10.4405467 7.29240135 -6.92401182 5.01725398 -3.6171875 2.21484375 C-1 0 -1 0 0 0 Z " fill="#E5E4E4" transform="translate(27,2)"/>
<path d="M0 0 C0 4.95 0 9.9 0 15 C-10.89 15 -21.78 15 -33 15 C-29.39005003 13.19502501 -25.82735297 11.75444264 -22.0625 10.3125 C-15.55302069 7.77577661 -9.50018229 4.74097837 -3.4140625 1.3203125 C-1 0 -1 0 0 0 Z " fill="#FCFCFC" transform="translate(124,4)"/>
<path d="M0 0 C1.50626953 0.77923828 1.50626953 0.77923828 3.04296875 1.57421875 C10.68359703 5.48464349 18.25194679 9.06098576 26.328125 11.9921875 C29 13 29 13 33 15 C22.11 15 11.22 15 0 15 C0 10.05 0 5.1 0 0 Z " fill="#FCFCFC" transform="translate(29,4)"/>
<path d="M0 0 C0.66 0 1.32 0 2 0 C2 6.27 2 12.54 2 19 C9.59 19 17.18 19 25 19 C24.01 19.495 24.01 19.495 23 20 C23.061875 20.763125 23.12375 21.52625 23.1875 22.3125 C23 25 23 25 21.625 26.8125 C20 28 20 28 18 28 C18 29.98 18 31.96 18 34 C17.67 34 17.34 34 17 34 C16.93489583 32.046875 16.86979167 30.09375 16.8046875 28.140625 C15.80844125 25.49041653 14.39202275 24.24562703 11.98779297 22.79003906 C7.8767591 21.15612779 3.49386794 21.31622569 -0.875 21.25 C-4.21625 21.1675 -7.5575 21.085 -11 21 C-11 27.93 -11 34.86 -11 42 C-11.33 42 -11.66 42 -12 42 C-12 34.74 -12 27.48 -12 20 C-20.91 20 -29.82 20 -39 20 C-39 19.67 -39 19.34 -39 19 C-26.13 19 -13.26 19 0 19 C0 12.73 0 6.46 0 0 Z " fill="#321C19" transform="translate(124,1)"/>
<path d="M0 0 C0.99 0 1.98 0 3 0 C4.87590118 2.04428916 6.5296109 4.04105789 8.1875 6.25 C8.65091797 6.83652344 9.11433594 7.42304688 9.59179688 8.02734375 C12.1414096 11.36925144 13 12.67455392 13 17 C12.34 17 11.68 17 11 17 C11 16.34 11 15.68 11 15 C9.51886719 15.01740234 9.51886719 15.01740234 8.0078125 15.03515625 C6.72648437 15.04417969 5.44515625 15.05320312 4.125 15.0625 C2.84882812 15.07410156 1.57265625 15.08570313 0.2578125 15.09765625 C-3 15 -3 15 -5 14 C-5 14.66 -5 15.32 -5 16 C-7.31 16 -9.62 16 -12 16 C-10.57669532 14.10226043 -9.15244557 12.2053653 -7.72265625 10.3125 C-6.58527277 8.78567229 -5.46749327 7.24401923 -4.37109375 5.6875 C-3.85675781 4.965625 -3.34242187 4.24375 -2.8125 3.5 C-2.34457031 2.8296875 -1.87664062 2.159375 -1.39453125 1.46875 C-0.93433594 0.9840625 -0.47414063 0.499375 0 0 Z " fill="#CB7122" transform="translate(75,21)"/>
<path d="M0 0 C0.928125 0.2784375 0.928125 0.2784375 1.875 0.5625 C4.04160178 1.23686176 4.04160178 1.23686176 6 0 C8.125 0.9375 8.125 0.9375 10 2 C10 2.66 10 3.32 10 4 C11.32 3.01 12.64 2.02 14 1 C14 1.66 14 2.32 14 3 C15.32 2.67 16.64 2.34 18 2 C18 8.93 18 15.86 18 23 C14.8941488 19.8941488 12.26944905 17.23855046 9.66796875 13.828125 C9.09755859 13.08175781 8.52714844 12.33539063 7.93945312 11.56640625 C7.36130859 10.80199219 6.78316406 10.03757812 6.1875 9.25 C5.2912793 8.08017578 5.2912793 8.08017578 4.37695312 6.88671875 C0 1.13415179 0 1.13415179 0 0 Z " fill="#E8AB28" transform="translate(94,39)"/>
<path d="M0 0 C6.60196104 -0.02537644 13.20390948 -0.04287804 19.8059082 -0.05493164 C22.05135569 -0.05995719 24.29679992 -0.06677865 26.54223633 -0.07543945 C29.77165534 -0.08758281 33.00103105 -0.09324614 36.23046875 -0.09765625 C37.23272995 -0.10281754 38.23499115 -0.10797882 39.2676239 -0.11329651 C40.67852043 -0.11340981 40.67852043 -0.11340981 42.11791992 -0.11352539 C42.94176682 -0.115746 43.76561371 -0.11796661 44.61442566 -0.12025452 C47.15755317 0.0079421 49.51840931 0.44270612 52 1 C51.01 2.98 50.02 4.96 49 7 C47.68 7 46.36 7 45 7 C44.505 6.01 44.505 6.01 44 5 C34.91399051 2.64121146 25.50297626 2.74772602 16.1875 2.875 C14.27227539 2.88853516 14.27227539 2.88853516 12.31835938 2.90234375 C9.21203284 2.92561211 6.10612428 2.95829845 3 3 C2.34 4.65 1.68 6.3 1 8 C-1.5 6.6875 -1.5 6.6875 -4 5 C-4 4.01 -4 3.02 -4 2 C-2.68 2 -1.36 2 0 2 C0 1.34 0 0.68 0 0 Z " fill="#F9E8BA" transform="translate(52,74)"/>
<path d="M0 0 C2.06700741 1.37800494 4.13373302 2.75643403 6.19921875 4.13671875 C8.21796532 5.47973425 10.24207788 6.81469624 12.26953125 8.14453125 C13.89955078 9.21767578 13.89955078 9.21767578 15.5625 10.3125 C16.59503906 10.98925781 17.62757813 11.66601562 18.69140625 12.36328125 C19.45324219 12.90339844 20.21507812 13.44351562 21 14 C21 14.33 21 14.66 21 15 C14.07 15 7.14 15 0 15 C0 10.05 0 5.1 0 0 Z " fill="#FCFCFC" transform="translate(126,4)"/>
<path d="M0 0 C0.268125 0.639375 0.53625 1.27875 0.8125 1.9375 C1.88667752 4.33131686 1.88667752 4.33131686 5 5 C5 5.66 5 6.32 5 7 C8.465 6.505 8.465 6.505 12 6 C12 6.66 12 7.32 12 8 C12.99 8 13.98 8 15 8 C15 8.66 15 9.32 15 10 C20.61 10.33 26.22 10.66 32 11 C31.67 11.99 31.34 12.98 31 14 C23.74 14 16.48 14 9 14 C9 14.66 9 15.32 9 16 C8.01 16.33 7.02 16.66 6 17 C6 16.01 6 15.02 6 14 C5.34 14 4.68 14 4 14 C3.67 13.34 3.34 12.68 3 12 C2.01 11.67 1.02 11.34 0 11 C-1.125 3.375 -1.125 3.375 0 0 Z " fill="#CD8223" transform="translate(16,31)"/>
<path d="M0 0 C0.33 1.32 0.66 2.64 1 4 C-0.32 4.33 -1.64 4.66 -3 5 C-3 5.66 -3 6.32 -3 7 C-2.27546631 6.84007568 -1.55093262 6.68015137 -0.80444336 6.51538086 C1.80433579 6.03595779 4.2242553 5.83157753 6.87109375 5.75390625 C7.77537109 5.72103516 8.67964844 5.68816406 9.61132812 5.65429688 C11.49141762 5.5932297 13.37163308 5.53592161 15.25195312 5.48242188 C16.61030273 5.43118164 16.61030273 5.43118164 17.99609375 5.37890625 C19.22090454 5.34132202 19.22090454 5.34132202 20.47045898 5.30297852 C23.6437975 5.00891237 23.6437975 5.00891237 29 3 C33.455 7.95 33.455 7.95 38 13 C37.67 13.66 37.34 14.32 37 15 C35.4375 14.0234375 33.875 13.046875 32.3125 12.0703125 C25.58206397 8.95521204 18.85496625 8.63551545 11.5625 8.625 C10.67240234 8.60050781 9.78230469 8.57601562 8.86523438 8.55078125 C3.05858244 8.52533208 -1.06383109 9.51294194 -6.20727539 12.23583984 C-6.79887451 12.4880127 -7.39047363 12.74018555 -8 13 C-8.66 12.67 -9.32 12.34 -10 12 C-8.52149287 10.18696196 -7.04217625 8.37458402 -5.5625 6.5625 C-4.32693359 5.04849609 -4.32693359 5.04849609 -3.06640625 3.50390625 C-1 1 -1 1 0 0 Z " fill="#D59D36" transform="translate(63,37)"/>
<path d="M0 0 C0 0.33 0 0.66 0 1 C-1.05405029 0.98428955 -1.05405029 0.98428955 -2.12939453 0.96826172 C-27.76242809 0.1975866 -27.76242809 0.1975866 -53 4 C-52.67 5.32 -52.34 6.64 -52 8 C-54.64 7.34 -57.28 6.68 -60 6 C-58.69072165 0.7628866 -58.69072165 0.7628866 -56 -1 C-53.99912102 -0.67198412 -51.99925756 -0.33775777 -50 0 C-47.93624934 -0.04798642 -45.87328053 -0.16480747 -43.81640625 -0.33984375 C-42.06396606 -0.4805127 -42.06396606 -0.4805127 -40.27612305 -0.62402344 C-39.05062744 -0.7274707 -37.82513184 -0.83091797 -36.5625 -0.9375 C-9.56682382 -3.02489285 -9.56682382 -3.02489285 0 0 Z " fill="#ECC964" transform="translate(96,67)"/>
<path d="M0 0 C0.33 0 0.66 0 1 0 C1 22.77 1 45.54 1 69 C-19.46 69 -39.92 69 -61 69 C-58.1709277 66.1709277 -57.61855575 65.62388892 -54 65 C-54.495 65.99 -54.495 65.99 -55 67 C-36.85 67.33 -18.7 67.66 0 68 C0 45.56 0 23.12 0 0 Z " fill="#1B1B1B" transform="translate(150,20)"/>
<path d="M0 0 C0 0.66 0 1.32 0 2 C1.32 1.34 2.64 0.68 4 0 C7 1.8125 7 1.8125 10 4 C10 4.99 10 5.98 10 7 C9.01 7 8.02 7 7 7 C6.01 8.485 6.01 8.485 5 10 C3 9 1 8 -1 7 C-2.918125 7.061875 -2.918125 7.061875 -4.875 7.125 C-8.57154756 7.17847628 -10.27127597 6.62766018 -13 4 C-13.99 3.34 -14.98 2.68 -16 2 C-10.51324804 0.13216954 -5.77807024 -0.2358396 0 0 Z " fill="#EDC143" transform="translate(100,58)"/>
<path d="M0 0 C1.32 0.33 2.64 0.66 4 1 C3.41249836 4.92891723 1.48121841 7.21936894 -1 10.25 C-2.0828125 11.58804688 -2.0828125 11.58804688 -3.1875 12.953125 C-3.785625 13.62859375 -4.38375 14.3040625 -5 15 C-5.33 15 -5.66 15 -6 15 C-6.33 12.36 -6.66 9.72 -7 7 C-13.27 6.67 -19.54 6.34 -26 6 C-22.35581659 3.57054439 -21.07076636 3.9171219 -16.8125 4.375 C-15.72582031 4.48585938 -14.63914062 4.59671875 -13.51953125 4.7109375 C-12.27236328 4.85402344 -12.27236328 4.85402344 -11 5 C-10.67 4.01 -10.34 3.02 -10 2 C-6.7 2 -3.4 2 0 2 C0 1.34 0 0.68 0 0 Z " fill="#D7852C" transform="translate(55,36)"/>
<path d="M0 0 C0.85039352 -0.00095673 1.70078705 -0.00191345 2.57695007 -0.00289917 C4.38341343 -0.00358026 6.18987923 -0.00173092 7.99633789 0.00244141 C10.71311224 0.00771809 13.42971568 0.00253218 16.14648438 -0.00390625 C38.62821162 -0.01577254 38.62821162 -0.01577254 45.44921875 1.1328125 C45.94421875 2.1228125 45.94421875 2.1228125 46.44921875 3.1328125 C45.85897415 3.13059189 45.26872955 3.12837128 44.66059875 3.12608337 C38.51242682 3.10394465 32.36426622 3.08887 26.21606445 3.07788086 C23.92211446 3.07285489 21.62816767 3.06603312 19.33422852 3.05737305 C16.03531097 3.04523154 12.73643582 3.03956678 9.4375 3.03515625 C8.41336502 3.02999496 7.38923004 3.02483368 6.33406067 3.01951599 C5.37344223 3.01944046 4.41282379 3.01936493 3.4230957 3.01928711 C2.58148392 3.0170665 1.73987213 3.01484589 0.87275696 3.01255798 C-1.71440657 3.14093149 -4.05124338 3.44687642 -6.55078125 4.1328125 C-6.88078125 4.7928125 -7.21078125 5.4528125 -7.55078125 6.1328125 C-8.87078125 4.4828125 -10.19078125 2.8328125 -11.55078125 1.1328125 C-7.684935 -0.15580292 -4.02818718 -0.00999816 0 0 Z " fill="#F3DD9E" transform="translate(54.55078125,71.8671875)"/>
<path d="M0 0 C0.66 1.32 1.32 2.64 2 4 C0.37620295 5.95934183 -1.24897977 7.91750457 -2.875 9.875 C-3.33519531 10.43058594 -3.79539062 10.98617187 -4.26953125 11.55859375 C-6.11816143 13.78230832 -7.95400946 15.95400946 -10 18 C-11.32226452 17.46085342 -12.63271056 16.89266121 -13.9375 16.3125 C-14.66839844 15.99925781 -15.39929688 15.68601562 -16.15234375 15.36328125 C-18 14 -18 14 -18.75390625 11.35546875 C-18.83511719 10.57816406 -18.91632812 9.80085938 -19 9 C-17.89591797 8.94392578 -17.89591797 8.94392578 -16.76953125 8.88671875 C-9.32858578 8.54963592 -9.32858578 8.54963592 -3 5 C-1.19203897 2.43389334 -1.19203897 2.43389334 0 0 Z " fill="#543B08" transform="translate(45,54)"/>
<path d="M0 0 C0.33 0.66 0.66 1.32 1 2 C3.31 2 5.62 2 8 2 C8.33 3.32 8.66 4.64 9 6 C-0.24 6 -9.48 6 -19 6 C-19.33 4.68 -19.66 3.36 -20 2 C-19.42967041 1.97494385 -18.85934082 1.9498877 -18.27172852 1.92407227 C-15.70173843 1.80843451 -13.13214473 1.68556376 -10.5625 1.5625 C-9.66466797 1.52318359 -8.76683594 1.48386719 -7.84179688 1.44335938 C-6.98779297 1.40146484 -6.13378906 1.35957031 -5.25390625 1.31640625 C-4.46314697 1.27974854 -3.6723877 1.24309082 -2.85766602 1.20532227 C-0.98598559 1.19436743 -0.98598559 1.19436743 0 0 Z " fill="#F6F5F0" transform="translate(81,82)"/>
<path d="M0 0 C0.33 0 0.66 0 1 0 C1 5.94 1 11.88 1 18 C4.96 18 8.92 18 13 18 C13.33 17.34 13.66 16.68 14 16 C14.66 16 15.32 16 16 16 C16.33 15.01 16.66 14.02 17 13 C17.66 13.33 18.32 13.66 19 14 C18.40999165 17.17129489 17.73778305 19.35837744 15.26171875 21.51171875 C12.31240795 23.45015466 9.6823811 24.82940473 6.25 25.6875 C3.42229101 24.82347781 2.38981357 23.38261065 0.82910156 20.93188477 C-0.79648623 17.14411204 -0.40851019 13.17310642 -0.25 9.125 C-0.23195313 8.24585938 -0.21390625 7.36671875 -0.1953125 6.4609375 C-0.14848379 4.3068168 -0.07674994 2.15326226 0 0 Z " fill="#DABB62" transform="translate(114,46)"/>
<path d="M0 0 C-0.66 0.33 -1.32 0.66 -2 1 C-1.938125 1.763125 -1.87625 2.52625 -1.8125 3.3125 C-2 6 -2 6 -3.375 7.8125 C-5 9 -5 9 -7 9 C-7 10.98 -7 12.96 -7 15 C-7.33 15 -7.66 15 -8 15 C-8.06510417 13.046875 -8.13020833 11.09375 -8.1953125 9.140625 C-9.19486186 6.48162962 -10.63329626 5.24921782 -13.04345703 3.79003906 C-16.99431359 2.19470941 -21.16608179 2.31604579 -25.375 2.25 C-26.30183594 2.22035156 -27.22867188 2.19070312 -28.18359375 2.16015625 C-30.45581435 2.08988139 -32.72703459 2.03697952 -35 2 C-35 1.67 -35 1.34 -35 1 C-23.32446893 0.37160039 -11.69591188 -0.17691295 0 0 Z " fill="#441608" transform="translate(149,20)"/>
<path d="M0 0 C0.33 4.29 0.66 8.58 1 13 C0.01 13.495 0.01 13.495 -1 14 C-1.268125 13.030625 -1.53625 12.06125 -1.8125 11.0625 C-2.204375 10.051875 -2.59625 9.04125 -3 8 C-7.50950224 6.49683259 -12.13372846 7.03414149 -16.83984375 7.21484375 C-22.62594577 7.32515072 -22.62594577 7.32515072 -24.74414062 5.48388672 C-25.15857422 4.9942041 -25.57300781 4.50452148 -26 4 C-24.78183594 3.96261719 -23.56367187 3.92523438 -22.30859375 3.88671875 C-20.6848671 3.82101883 -19.06117051 3.75457291 -17.4375 3.6875 C-16.63763672 3.66494141 -15.83777344 3.64238281 -15.01367188 3.61914062 C-9.87021572 3.38820994 -4.58198873 0 0 0 Z " fill="#D29132" transform="translate(140,41)"/>
<path d="M0 0 C10.56 0 21.12 0 32 0 C32 4.95 32 9.9 32 15 C31.67 15 31.34 15 31 15 C31 10.71 31 6.42 31 2 C17.635 2.495 17.635 2.495 4 3 C6.475 5.97 6.475 5.97 9 9 C8.67 9.99 8.34 10.98 8 12 C6.66081194 10.37982158 5.3288031 8.75370657 4 7.125 C3.2575 6.22007813 2.515 5.31515625 1.75 4.3828125 C0 2 0 2 0 0 Z " fill="#A94D28" transform="translate(80,21)"/>
<path d="M0 0 C4.62 0 9.24 0 14 0 C13.071875 0.94875 12.14375 1.8975 11.1875 2.875 C7.50505178 7.1146035 6.23756297 11.60465966 5 17 C4.67 17 4.34 17 4 17 C3.32844651 14.73050898 2.6626037 12.4596039 2 10.1875 C1.443125 8.29064453 1.443125 8.29064453 0.875 6.35546875 C0 3 0 3 0 0 Z " fill="#AD4B23" transform="translate(8,21)"/>
<path d="M0 0 C1.98 0 3.96 0 6 0 C5.59334568 6.43635624 4.8029155 10.72993191 0.5 15.75 C-2.74299054 18.45249211 -6.40469951 18.225527 -10.4375 18.3125 C-12.13712891 18.36857422 -12.13712891 18.36857422 -13.87109375 18.42578125 C-17 18 -17 18 -21 14 C-15.06 14.66 -9.12 15.32 -3 16 C-3 15.34 -3 14.68 -3 14 C-2.01 14 -1.02 14 0 14 C-0.33 13.01 -0.66 12.02 -1 11 C-0.34 11 0.32 11 1 11 C1.33 9.68 1.66 8.36 2 7 C1.01 6.67 0.02 6.34 -1 6 C0.32 5.67 1.64 5.34 3 5 C3 3.68 3 2.36 3 1 C2.01 0.67 1.02 0.34 0 0 Z " fill="#DCB53A" transform="translate(41,45)"/>
<path d="M0 0 C0 2.83967231 -0.40267181 5.23735711 -1 8 C0.11375 7.95875 1.2275 7.9175 2.375 7.875 C6 8 6 8 8 10 C3.25 13 3.25 13 1 13 C1 12.01 1 11.02 1 10 C-1.31 11.32 -3.62 12.64 -6 14 C-6.66 13.34 -7.32 12.68 -8 12 C-6.79444959 5.85169289 -5.08441876 3.64751781 0 0 Z " fill="#EDC03A" transform="translate(53,52)"/>
<path d="M0 0 C2.49732489 3.74598733 2.62175294 5.57001031 2 10 C-1 12.4375 -1 12.4375 -4 14 C-3.67 11.36 -3.34 8.72 -3 6 C-3.66 6 -4.32 6 -5 6 C-5.66 7.32 -6.32 8.64 -7 10 C-7.66 10 -8.32 10 -9 10 C-8.34 7.03 -7.68 4.06 -7 1 C-3 0 -3 0 0 0 Z " fill="#E7A32B" transform="translate(137,47)"/>
<path d="M0 0 C0 0.99 0 1.98 0 3 C0.99 3 1.98 3 3 3 C3.33 2.01 3.66 1.02 4 0 C4 0.66 4 1.32 4 2 C4.59167969 1.90460937 5.18335937 1.80921875 5.79296875 1.7109375 C10.44380225 1.05845515 13.72314374 0.65462721 18 3 C16.25 7.875 16.25 7.875 14 9 C13.67 7.35 13.34 5.7 13 4 C9.04 4 5.08 4 1 4 C0.67 4.66 0.34 5.32 0 6 C-0.721875 5.814375 -1.44375 5.62875 -2.1875 5.4375 C-5.12826973 4.98004693 -7.14103058 5.26483643 -10 6 C-10 5.01 -10 4.02 -10 3 C-8.70990357 2.49596232 -7.41786211 1.99690074 -6.125 1.5 C-5.04605469 1.08234375 -5.04605469 1.08234375 -3.9453125 0.65625 C-2 0 -2 0 0 0 Z " fill="#CA6921" transform="translate(45,30)"/>
<path d="M0 0 C10.89 0 21.78 0 33 0 C33 0.66 33 1.32 33 2 C25.08 2.33 17.16 2.66 9 3 C8.67 3.99 8.34 4.98 8 6 C7.67 6.99 7.34 7.98 7 9 C6.401875 8.071875 5.80375 7.14375 5.1875 6.1875 C3.05549159 2.87258368 3.05549159 2.87258368 0 0 Z " fill="#A44626" transform="translate(40,21)"/>
<path d="M0 0 C5.32022769 -0.02476651 10.64042162 -0.04289156 15.96069336 -0.05493164 C17.76961858 -0.05995238 19.57853976 -0.06677029 21.38745117 -0.07543945 C23.99138386 -0.08760402 26.59526277 -0.09325098 29.19921875 -0.09765625 C30.00461594 -0.10281754 30.81001312 -0.10797882 31.63981628 -0.11329651 C35.56472601 -0.11368637 39.16699982 0.02915245 43 1 C43 1.66 43 2.32 43 3 C41.27473958 3.9765625 39.54947917 4.953125 37.82421875 5.9296875 C36.18017711 6.89428581 34.58599412 7.94267059 33 9 C32.505 7.515 32.505 7.515 32 6 C32.66 5.67 33.32 5.34 34 5 C30.36424074 2.57616049 28.26440874 2.61510907 23.92578125 2.3671875 C23.2419487 2.32562531 22.55811615 2.28406311 21.8535614 2.24124146 C19.67360794 2.11069488 17.49318147 1.99269291 15.3125 1.875 C13.8326338 1.78858682 12.35281506 1.70135684 10.87304688 1.61328125 C7.24920019 1.39938056 3.62482438 1.19672287 0 1 C0 0.67 0 0.34 0 0 Z " fill="#ECD697" transform="translate(69,71)"/>
<path d="M0 0 C0.33 0.66 0.66 1.32 1 2 C1.33 1.34 1.66 0.68 2 0 C5.17538332 0.34021964 6.02276865 1.02466604 8.25 3.4375 C10 6 10 6 10 8 C8.68 8.33 7.36 8.66 6 9 C6 8.34 6 7.68 6 7 C4.66195312 6.81824219 4.66195312 6.81824219 3.296875 6.6328125 C2.12640625 6.46523437 0.9559375 6.29765625 -0.25 6.125 C-1.99023438 5.88136719 -1.99023438 5.88136719 -3.765625 5.6328125 C-6.58193313 5.08179569 -8.55217557 4.44203518 -11 3 C-10.34 2.34 -9.68 1.68 -9 1 C-6.54901444 1.39532025 -4.36095721 2.21301426 -2 3 C-1.34 2.01 -0.68 1.02 0 0 Z " fill="#EEC963" transform="translate(107,64)"/>
<path d="M0 0 C0.99 0 1.98 0 3 0 C4.32 2.31 5.64 4.62 7 7 C5.68 7 4.36 7 3 7 C2.67 7.66 2.34 8.32 2 9 C0.02 9 -1.96 9 -4 9 C-4.66 10.32 -5.32 11.64 -6 13 C-6.99 12.67 -7.98 12.34 -9 12 C-7.57391198 9.99092002 -6.13533968 7.99330486 -4.6875 6 C-4.28337891 5.42765625 -3.87925781 4.8553125 -3.46289062 4.265625 C-2.38099475 2.78791356 -1.19544451 1.38745891 0 0 Z " fill="#B75123" transform="translate(75,21)"/>
<path d="M0 0 C0 0.99 0 1.98 0 3 C0.66 3 1.32 3 2 3 C1.67 4.65 1.34 6.3 1 8 C0.01 8.33 -0.98 8.66 -2 9 C-2.33 8.34 -2.66 7.68 -3 7 C-5.48412207 6.17195931 -7.35220307 6 -10 6 C-10.66 5.34 -11.32 4.68 -12 4 C-8.54145481 0.54145481 -4.78095787 0 0 0 Z " fill="#DC8C22" transform="translate(106,34)"/>
<path d="M0 0 C0.99 0.495 0.99 0.495 2 1 C2 1.66 2 2.32 2 3 C2.61875 2.79375 3.2375 2.5875 3.875 2.375 C4.926875 2.189375 4.926875 2.189375 6 2 C8 4 8 4 8 7 C10.97 7 13.94 7 17 7 C17 7.33 17 7.66 17 8 C11.29309366 8.99250545 5.78591511 9.10477512 0 9 C0 6.03 0 3.06 0 0 Z " fill="#D18333" transform="translate(114,34)"/>
<path d="M0 0 C0.33 0 0.66 0 1 0 C0.875 3.3125 0.875 3.3125 0 7 C-4.64559844 10.60033879 -9.39392131 10.33636472 -15 10 C-13.68 9.34 -12.36 8.68 -11 8 C-11 7.01 -11 6.02 -11 5 C-9.68 5.33 -8.36 5.66 -7 6 C-6.62875 5.0409375 -6.62875 5.0409375 -6.25 4.0625 C-5 2 -5 2 -2.9375 1.3125 C-2.298125 1.209375 -1.65875 1.10625 -1 1 C-0.67 0.67 -0.34 0.34 0 0 Z " fill="#D0651F" transform="translate(139,33)"/>
<path d="M0 0 C5.46264314 -0.02476266 10.92525343 -0.04288974 16.38793945 -0.05493164 C18.24536712 -0.05995303 20.10279085 -0.06677141 21.96020508 -0.07543945 C24.63363621 -0.08760117 27.30701496 -0.09325033 29.98046875 -0.09765625 C30.80773972 -0.10281754 31.63501068 -0.10797882 32.48735046 -0.11329651 C36.4622534 -0.1136812 40.11956833 0.01019881 44 1 C42.625 2.5 42.625 2.5 41 4 C40.34 4 39.68 4 39 4 C39 3.34 39 2.68 39 2 C19.695 1.505 19.695 1.505 0 1 C0 0.67 0 0.34 0 0 Z " fill="#F7E3AF" transform="translate(60,74)"/>
<path d="M0 0 C2.31 0 4.62 0 7 0 C7.33 2.31 7.66 4.62 8 7 C7.37738281 6.68289062 6.75476563 6.36578125 6.11328125 6.0390625 C1.81678194 4.60509912 -2.31008848 4.53616014 -6.8125 4.375 C-7.69615234 4.33632813 -8.57980469 4.29765625 -9.49023438 4.2578125 C-11.65982972 4.16399216 -13.82988547 4.08092674 -16 4 C-12.35581659 1.57054439 -11.07076636 1.9171219 -6.8125 2.375 C-5.72582031 2.48585937 -4.63914062 2.59671875 -3.51953125 2.7109375 C-2.68808594 2.80632813 -1.85664062 2.90171875 -1 3 C-0.67 2.01 -0.34 1.02 0 0 Z " fill="#DD9329" transform="translate(45,38)"/>
<path d="M0 0 C2.12493141 -0.02693575 4.24995912 -0.04636628 6.375 -0.0625 C7.55835937 -0.07410156 8.74171875 -0.08570313 9.9609375 -0.09765625 C13 0 13 0 15 1 C14.67 1.66 14.34 2.32 14 3 C10.04 3 6.08 3 2 3 C1.67 3.66 1.34 4.32 1 5 C-2.28976808 6.09658936 -3.71303767 5.79953138 -7 5 C-6.34 3.68 -5.68 2.36 -5 1 C-3.35 1.33 -1.7 1.66 0 2 C0 1.34 0 0.68 0 0 Z " fill="#D98020" transform="translate(70,35)"/>
<path d="M0 0 C0.804375 0.37125 1.60875 0.7425 2.4375 1.125 C4.32469655 0.75792383 4.32469655 0.75792383 6.4375 0.125 C9.1105727 0.02714185 11.76136233 0.08039771 14.4375 0.125 C14.4375 0.785 14.4375 1.445 14.4375 2.125 C11.43960796 3.62394602 8.52014355 3.44203133 5.1875 3.625 C0.52946616 3.88275681 -3.97436994 4.27006893 -8.5625 5.125 C-7.5625 2.125 -7.5625 2.125 -5.3125 0.3125 C-2.5625 -0.875 -2.5625 -0.875 0 0 Z " fill="#E09724" transform="translate(67.5625,39.875)"/>
<path d="M0 0 C1.98 0.66 3.96 1.32 6 2 C6 2.99 6 3.98 6 5 C1.38 5.66 -3.24 6.32 -8 7 C-7.67 5.35 -7.34 3.7 -7 2 C-4.03 2.495 -4.03 2.495 -1 3 C-0.67 2.01 -0.34 1.02 0 0 Z " fill="#D15D1F" transform="translate(78,27)"/>
<path d="M0 0 C2.97076195 2.00353713 4.82011978 3.74999644 6.6875 6.8125 C6.4375 9.125 6.4375 9.125 5.6875 10.8125 C5.39875 10.173125 5.11 9.53375 4.8125 8.875 C3.85926549 6.66043921 3.85926549 6.66043921 1.6875 5.8125 C1.3575 4.8225 1.0275 3.8325 0.6875 2.8125 C-4.17003045 1.51715855 -9.3209132 1.31334132 -14.3125 1.8125 C-15.3025 2.4725 -16.2925 3.1325 -17.3125 3.8125 C-18.3025 3.4825 -19.2925 3.1525 -20.3125 2.8125 C-13.30675504 -1.26356979 -7.81980797 -2.80332739 0 0 Z " fill="#A74425" transform="translate(39.3125,22.1875)"/>
<path d="M0 0 C3.1518283 1.36465647 4.9524257 2.81256738 7.09375 5.484375 C7.64933594 6.17273438 8.20492187 6.86109375 8.77734375 7.5703125 C9.34582031 8.28960937 9.91429688 9.00890625 10.5 9.75 C11.06847656 10.45382813 11.63695313 11.15765625 12.22265625 11.8828125 C15.36297108 15.80274145 18.28803292 19.77252191 21 24 C20.01 24 19.02 24 18 24 C16.30420144 22.07829577 14.80937978 20.19318602 13.3125 18.125 C12.42675258 16.93417273 11.54002048 15.7440773 10.65234375 14.5546875 C10.21003418 13.9575293 9.76772461 13.36037109 9.31201172 12.74511719 C6.76971595 9.36358943 4.07294297 6.10518704 1.3984375 2.828125 C0 1 0 1 0 0 Z " fill="#501302" transform="translate(78,22)"/>
<path d="M0 0 C3.35433109 0.94933899 6.69246505 1.89748835 10 3 C10 5.97 10 8.94 10 12 C5.25892502 8.74897716 2.79129597 4.89367634 0 0 Z " fill="#E5B436" transform="translate(101,48)"/>
<path d="M0 0 C2.87602455 -0.10852923 5.74790832 -0.1875515 8.625 -0.25 C9.43324219 -0.28351562 10.24148437 -0.31703125 11.07421875 -0.3515625 C16.72969459 -0.44352146 19.62149319 0.38117103 24 4 C25 5 25 5 25.09765625 7.28515625 C25.08605469 8.20167969 25.07445312 9.11820313 25.0625 10.0625 C25.05347656 10.98160156 25.04445312 11.90070312 25.03515625 12.84765625 C25.02355469 13.55792969 25.01195312 14.26820312 25 15 C24.67 15 24.34 15 24 15 C23.505 10.05 23.505 10.05 23 5 C20.525 4.505 20.525 4.505 18 4 C18 3.34 18 2.68 18 2 C17.01 2.33 16.02 2.66 15 3 C14.67 2.67 14.34 2.34 14 2 C11.65012738 1.76472227 9.29443961 1.58613583 6.9375 1.4375 C5.64714844 1.35371094 4.35679688 1.26992188 3.02734375 1.18359375 C1.52880859 1.09271484 1.52880859 1.09271484 0 1 C0 0.67 0 0.34 0 0 Z " fill="#B24B28" transform="translate(116,22)"/>
<path d="M0 0 C2.51054905 0.1529647 4.99888525 0.25695178 7.51171875 0.31640625 C8.23994339 0.33718735 8.96816803 0.35796844 9.71846008 0.37937927 C12.04137875 0.44468746 14.36440906 0.50367237 16.6875 0.5625 C18.26368335 0.60570305 19.83985548 0.64931792 21.41601562 0.69335938 C25.27722975 0.8003496 29.13855603 0.90166961 33 1 C33 1.33 33 1.66 33 2 C19.8 2 6.6 2 -7 2 C-7 1.34 -7 0.68 -7 0 C-3.98968256 -0.93423645 -3.13349732 -1.04449911 0 0 Z " fill="#ADA4A1" transform="translate(91,18)"/>
<path d="M0 0 C-1.65 1.98 -3.3 3.96 -5 6 C-5.598125 5.690625 -6.19625 5.38125 -6.8125 5.0625 C-9.08956772 3.89790296 -9.08956772 3.89790296 -12 3 C-12 2.01 -12 1.02 -12 0 C-10.56359829 -0.19573608 -9.12580496 -0.38127816 -7.6875 -0.5625 C-6.88699219 -0.66691406 -6.08648437 -0.77132812 -5.26171875 -0.87890625 C-3 -1 -3 -1 0 0 Z " fill="#D7BB5A" transform="translate(39,65)"/>
<path d="M0 0 C4.62 0 9.24 0 14 0 C10.82679218 3.53586014 8.83256305 5.58578031 4 6 C2.68 4.02 1.36 2.04 0 0 Z " fill="#C84B19" transform="translate(83,23)"/>
<path d="M0 0 C0.33 0 0.66 0 1 0 C1 5.94 1 11.88 1 18 C4.3 18 7.6 18 11 18 C11 18.99 11 19.98 11 21 C8.03 21.33 5.06 21.66 2 22 C-0.10209857 18.84685215 -0.2434761 18.13896919 -0.1953125 14.55078125 C-0.18886719 13.70322266 -0.18242188 12.85566406 -0.17578125 11.98242188 C-0.15902344 11.10134766 -0.14226562 10.22027344 -0.125 9.3125 C-0.11597656 8.41982422 -0.10695313 7.52714844 -0.09765625 6.60742188 C-0.07409748 4.40467686 -0.04120329 2.20247412 0 0 Z " fill="#E8BC4B" transform="translate(114,46)"/>
<path d="M0 0 C0 4.32930322 -2.56648869 6.59932183 -5.1875 9.8125 C-5.67025391 10.41642578 -6.15300781 11.02035156 -6.65039062 11.64257812 C-9.71869644 15.4686937 -12.85071112 19.24042845 -16 23 C-16.66 22.67 -17.32 22.34 -18 22 C-15.93814296 19.45781116 -13.87539617 16.91634566 -11.8125 14.375 C-11.23435547 13.66214844 -10.65621094 12.94929688 -10.06054688 12.21484375 C-6.73511171 8.11911004 -3.38749024 4.04457404 0 0 Z " fill="#501701" transform="translate(72,23)"/>
<path d="M0 0 C0.33 0.66 0.66 1.32 1 2 C2.32 1.67 3.64 1.34 5 1 C5 7.93 5 14.86 5 22 C4.67 22 4.34 22 4 22 C3.67 16.72 3.34 11.44 3 6 C1.68 6 0.36 6 -1 6 C-0.67 4.02 -0.34 2.04 0 0 Z " fill="#D79D32" transform="translate(107,40)"/>
<path d="M0 0 C0.928125 0.2784375 0.928125 0.2784375 1.875 0.5625 C4.04160178 1.23686176 4.04160178 1.23686176 6 0 C8.125 0.9375 8.125 0.9375 10 2 C9.1654738 4.50357861 8.20628008 6.66785852 7 9 C4.03595495 6.19195732 1.55500981 3.81684226 0 0 Z " fill="#DD9832" transform="translate(94,39)"/>
<path d="M0 0 C5.61 0 11.22 0 17 0 C17.33 0.66 17.66 1.32 18 2 C11.375 3.125 11.375 3.125 8 2 C7.67 2.99 7.34 3.98 7 5 C6.67 4.01 6.34 3.02 6 2 C4.02 2 2.04 2 0 2 C0 1.34 0 0.68 0 0 Z " fill="#4B2F26" transform="translate(67,19)"/>
<path d="M0 0 C2.64 0.33 5.28 0.66 8 1 C7.34 1.66 6.68 2.32 6 3 C5.01 3 4.02 3 3 3 C2.34 4.65 1.68 6.3 1 8 C-1.5 6.6875 -1.5 6.6875 -4 5 C-4 4.01 -4 3.02 -4 2 C-2.68 2 -1.36 2 0 2 C0 1.34 0 0.68 0 0 Z " fill="#F9E7B2" transform="translate(52,74)"/>
<path d="M0 0 C2.64 0 5.28 0 8 0 C8 1.32 8 2.64 8 4 C6.35 4.66 4.7 5.32 3 6 C2.67 5.01 2.34 4.02 2 3 C1.34 3 0.68 3 0 3 C0 2.01 0 1.02 0 0 Z " fill="#F3EFDC" transform="translate(89,80)"/>
<path d="M0 0 C2.31 0 4.62 0 7 0 C6.06558465 1.27310312 5.12732889 2.543388 4.1875 3.8125 C3.66542969 4.52019531 3.14335938 5.22789063 2.60546875 5.95703125 C1.16871123 7.78531393 -0.31815763 9.39896688 -2 11 C-1 3.57142857 -1 3.57142857 0 0 Z " fill="#B84D20" transform="translate(65,23)"/>
<path d="M0 0 C0.33 0 0.66 0 1 0 C1.144375 1.0725 1.28875 2.145 1.4375 3.25 C1.83975445 5.93169633 2.30577277 8.39664788 3 11 C3.34153937 12.66500443 3.67449498 14.33178677 4 16 C4.185625 16.928125 4.37125 17.85625 4.5625 18.8125 C4.706875 19.534375 4.85125 20.25625 5 21 C1.56442 18.70961333 1.12115442 17.87065217 0 14 C-0.1953125 10.44921875 -0.1953125 10.44921875 -0.125 6.6875 C-0.10695313 5.43324219 -0.08890625 4.17898437 -0.0703125 2.88671875 C-0.03550781 1.45779297 -0.03550781 1.45779297 0 0 Z " fill="#DCAA3B" transform="translate(15,38)"/>
<path d="M0 0 C0.66 0.33 1.32 0.66 2 1 C1.38511719 1.68835937 1.38511719 1.68835937 0.7578125 2.390625 C0.21898437 3.00421875 -0.31984375 3.6178125 -0.875 4.25 C-1.40867188 4.85328125 -1.94234375 5.4565625 -2.4921875 6.078125 C-4.07817389 7.94511919 -4.07817389 7.94511919 -5 10.1875 C-5.495 11.0846875 -5.495 11.0846875 -6 12 C-9.125 12.75 -9.125 12.75 -12 13 C-10.71034824 11.62437146 -9.37310707 10.29233607 -8 9 C-7.34 9 -6.68 9 -6 9 C-5.7525 8.2575 -5.505 7.515 -5.25 6.75 C-3.90852699 3.79875938 -2.39094474 2.15185026 0 0 Z " fill="#261805" transform="translate(137,57)"/>
<path d="M0 0 C7.57142857 4 7.57142857 4 10 8 C7.33333333 8 4.66666667 8 2 8 C0.875 4.25 0.875 4.25 2 2 C1.34 2 0.68 2 0 2 C0 1.34 0 0.68 0 0 Z " fill="#DEB537" transform="translate(98,52)"/>
<path d="M0 0 C0.99 0.495 0.99 0.495 2 1 C2 3.31 2 5.62 2 8 C2.66 8 3.32 8 4 8 C4.33 10.64 4.66 13.28 5 16 C2 15 2 15 0 12 C-0.1953125 9.08203125 -0.1953125 9.08203125 -0.125 5.8125 C-0.10695313 4.72582031 -0.08890625 3.63914062 -0.0703125 2.51953125 C-0.04710938 1.68808594 -0.02390625 0.85664063 0 0 Z " fill="#C86327" transform="translate(114,22)"/>
<path d="M0 0 C3.3 0 6.6 0 10 0 C9.34 2.31 8.68 4.62 8 7 C7.34 7 6.68 7 6 7 C4.62517293 5.36739286 3.29352333 3.69774938 2 2 C1.34 1.34 0.68 0.68 0 0 Z " fill="#A04B2D" transform="translate(136,21)"/>
<path d="M0 0 C0.33 0.66 0.66 1.32 1 2 C1.99 2 2.98 2 4 2 C4.33 3.98 4.66 5.96 5 8 C2.36 7.34 -0.28 6.68 -3 6 C-2 2 -2 2 0 0 Z " fill="#D6BE74" transform="translate(39,67)"/>
<path d="M0 0 C0 0.66 0 1.32 0 2 C0.99 2 1.98 2 3 2 C2.34 3.32 1.68 4.64 1 6 C0.01 5.67 -0.98 5.34 -2 5 C-2.33 4.34 -2.66 3.68 -3 3 C-4.89533342 2.53476937 -4.89533342 2.53476937 -7.0625 2.375 C-8.361875 2.25125 -9.66125 2.1275 -11 2 C-11 1.67 -11 1.34 -11 1 C-7.26513121 0.4254048 -3.78706732 0 0 0 Z " fill="#F4EAC6" transform="translate(99,76)"/>
<path d="M0 0 C1.32 0.66 2.64 1.32 4 2 C3.01 3.485 3.01 3.485 2 5 C-0.1640625 5.29296875 -0.1640625 5.29296875 -2.625 5.1875 C-3.44226562 5.16042969 -4.25953125 5.13335937 -5.1015625 5.10546875 C-6.04128906 5.05326172 -6.04128906 5.05326172 -7 5 C-6.67 4.01 -6.34 3.02 -6 2 C-4.02 2 -2.04 2 0 2 C0 1.34 0 0.68 0 0 Z " fill="#DB8622" transform="translate(42,36)"/>
<path d="M0 0 C2.475 0.99 2.475 0.99 5 2 C5 2.99 5 3.98 5 5 C2 7.1875 2 7.1875 -1 9 C-0.67 6.03 -0.34 3.06 0 0 Z " fill="#DEAB3A" transform="translate(134,52)"/>
<path d="M0 0 C4.29 0 8.58 0 13 0 C12.67 0.99 12.34 1.98 12 3 C4.5 3.375 4.5 3.375 0 0 Z " fill="#E6A632" transform="translate(28,45)"/>
<path d="M0 0 C0.33 0.66 0.66 1.32 1 2 C1.61875 1.79375 2.2375 1.5875 2.875 1.375 C3.57625 1.25125 4.2775 1.1275 5 1 C7 3 7 3 7 6 C4.69 6 2.38 6 0 6 C0 4.02 0 2.04 0 0 Z " fill="#D57721" transform="translate(115,35)"/>
<path d="M0 0 C0.66 0.33 1.32 0.66 2 1 C1.67 1.33 1.34 1.66 1 2 C4.96 2.33 8.92 2.66 13 3 C13 3.33 13 3.66 13 4 C7.06 4 1.12 4 -5 4 C-2 1 -2 1 0 0 Z " fill="#1B1B1B" transform="translate(94,85)"/>
<path d="M0 0 C3.00765886 2.84936103 5.27845212 5.23511958 7 9 C3 7 -1 5 -5 3 C-3.35 2.67 -1.7 2.34 0 2 C0 1.34 0 0.68 0 0 Z " fill="#BC973C" transform="translate(94,43)"/>
<path d="M0 0 C1.98 0.66 3.96 1.32 6 2 C6 2.99 6 3.98 6 5 C4.02 5.33 2.04 5.66 0 6 C-0.38218767 4.34385343 -0.71395102 2.67542976 -1 1 C-0.67 0.67 -0.34 0.34 0 0 Z " fill="#C2591F" transform="translate(78,27)"/>
<path d="M0 0 C0.99 0.33 1.98 0.66 3 1 C1.52307692 6.66153846 1.52307692 6.66153846 -1.125 8.375 C-1.74375 8.58125 -2.3625 8.7875 -3 9 C-2.67 7.02 -2.34 5.04 -2 3 C-1.34 3 -0.68 3 0 3 C0 2.01 0 1.02 0 0 Z " fill="#DFB650" transform="translate(130,59)"/>
<path d="M0 0 C0.33 0.66 0.66 1.32 1 2 C-1.9366647 5.1391933 -3.79857974 6.90494731 -8.26171875 7.09765625 C-9.06222656 7.08605469 -9.86273438 7.07445312 -10.6875 7.0625 C-11.89986328 7.04896484 -11.89986328 7.04896484 -13.13671875 7.03515625 C-14.05904297 7.01775391 -14.05904297 7.01775391 -15 7 C-15 6.67 -15 6.34 -15 6 C-14.33613281 5.90203125 -13.67226562 5.8040625 -12.98828125 5.703125 C-7.62714274 4.79525337 -3.97963587 3.97963587 0 0 Z " fill="#BD6E2D" transform="translate(139,36)"/>
<path d="M0 0 C1.17369141 0.42539062 1.17369141 0.42539062 2.37109375 0.859375 C3.15613281 1.13265625 3.94117187 1.4059375 4.75 1.6875 C6.80859375 2.609375 6.80859375 2.609375 8.80859375 4.609375 C6.80859375 5.609375 6.80859375 5.609375 3.98828125 4.83203125 C2.89773437 4.44917969 1.8071875 4.06632812 0.68359375 3.671875 C-0.41210938 3.29160156 -1.5078125 2.91132812 -2.63671875 2.51953125 C-3.47976562 2.21917969 -4.3228125 1.91882812 -5.19140625 1.609375 C-2.19140625 -0.390625 -2.19140625 -0.390625 0 0 Z " fill="#503005" transform="translate(90.19140625,46.390625)"/>
<path d="M0 0 C1.98 0 3.96 0 6 0 C5.88590407 1.45922693 5.75834456 2.91740598 5.625 4.375 C5.55539063 5.18710937 5.48578125 5.99921875 5.4140625 6.8359375 C5 9 5 9 3 11 C3 7.7 3 4.4 3 1 C2.01 0.67 1.02 0.34 0 0 Z " fill="#D5AA3F" transform="translate(41,45)"/>
<path d="M0 0 C2.6875 -0.375 2.6875 -0.375 6 0 C8.33977608 1.80800879 9.36642107 3.42587563 11 6 C10.8125 8.375 10.8125 8.375 10 10 C9.71125 9.360625 9.4225 8.72125 9.125 8.0625 C8.17176549 5.84793921 8.17176549 5.84793921 6 5 C5.67 4.01 5.34 3.02 5 2 C3.35 1.67 1.7 1.34 0 1 C0 0.67 0 0.34 0 0 Z " fill="#B64D27" transform="translate(35,23)"/>
<path d="M0 0 C0.66 0.33 1.32 0.66 2 1 C1.67 4.96 1.34 8.92 1 13 C0.34 13 -0.32 13 -1 13 C-1 12.34 -1 11.68 -1 11 C-1.66 11 -2.32 11 -3 11 C-2.690625 10.29875 -2.38125 9.5975 -2.0625 8.875 C-0.96697322 5.91063343 -0.43577008 3.12301892 0 0 Z " fill="#1E0701" transform="translate(142,29)"/>
<path d="M0 0 C0.66 0 1.32 0 2 0 C3.25 6.5 3.25 6.5 1 11 C0.67 7.37 0.34 3.74 0 0 Z " fill="#B86530" transform="translate(11,27)"/>
<path d="M0 0 C1.32 0.33 2.64 0.66 4 1 C3.6875 2.875 3.6875 2.875 3 5 C2.01 5.66 1.02 6.32 0 7 C0 4.69 0 2.38 0 0 Z " fill="#D7A73F" transform="translate(49,44)"/>
<path d="M0 0 C0.268125 0.639375 0.53625 1.27875 0.8125 1.9375 C1.88667752 4.33131686 1.88667752 4.33131686 5 5 C5 5.66 5 6.32 5 7 C4.01 7 3.02 7 2 7 C1.34 7.66 0.68 8.32 0 9 C-1.125 3.375 -1.125 3.375 0 0 Z " fill="#CB742C" transform="translate(16,31)"/>
<path d="M0 0 C3.63094642 2.64960955 5.89851796 5.01824456 8 9 C7.01 9 6.02 9 5 9 C3.61328125 7.5390625 3.61328125 7.5390625 2.3125 5.625 C1.65701172 4.68527344 1.65701172 4.68527344 0.98828125 3.7265625 C0 2 0 2 0 0 Z " fill="#562C04" transform="translate(91,37)"/>
<path d="M0 0 C1.32 0 2.64 0 4 0 C4 0.66 4 1.32 4 2 C4.99 2.33 5.98 2.66 7 3 C7.33 3.99 7.66 4.98 8 6 C5.0280615 4.87548273 2.66559313 3.77706209 0 2 C0 1.34 0 0.68 0 0 Z " fill="#E8E7D8" transform="translate(54,81)"/>
<path d="M0 0 C4.875 4.625 4.875 4.625 6 8 C4.68 8.33 3.36 8.66 2 9 C1.855625 8.2575 1.71125 7.515 1.5625 6.75 C1.09812508 4.47972261 0.58136431 2.24240521 0 0 Z " fill="#C6AD68" transform="translate(111,64)"/>
<path d="M0 0 C1.32 0 2.64 0 4 0 C4 1.65 4 3.3 4 5 C3.01 5 2.02 5 1 5 C0.67 3.35 0.34 1.7 0 0 Z " fill="#DEA42C" transform="translate(98,42)"/>
<path d="M0 0 C1.2065625 0.0309375 1.2065625 0.0309375 2.4375 0.0625 C2.4375 1.0525 2.4375 2.0425 2.4375 3.0625 C1.7775 3.7225 1.1175 4.3825 0.4375 5.0625 C-0.8825 3.7425 -2.2025 2.4225 -3.5625 1.0625 C-2.5625 0.0625 -2.5625 0.0625 0 0 Z " fill="#E0D7B7" transform="translate(51.5625,76.9375)"/>
<path d="M0 0 C0.33 0.66 0.66 1.32 1 2 C1.33 1.34 1.66 0.68 2 0 C2.66 0 3.32 0 4 0 C4.66 1.65 5.32 3.3 6 5 C3.69 4.67 1.38 4.34 -1 4 C-0.67 2.68 -0.34 1.36 0 0 Z " fill="#ECC558" transform="translate(107,64)"/>
<path d="M0 0 C1 2 1 2 0.1875 4.5625 C-1 7 -1 7 -3 8 C-3.33 7.01 -3.66 6.02 -4 5 C-2.0625 2.3125 -2.0625 2.3125 0 0 Z " fill="#E2BD4A" transform="translate(46,58)"/>
<path d="M0 0 C0.99 0 1.98 0 3 0 C2.6875 1.875 2.6875 1.875 2 4 C1.01 4.66 0.02 5.32 -1 6 C-1.042721 4.33388095 -1.04063832 2.66617115 -1 1 C-0.67 0.67 -0.34 0.34 0 0 Z " fill="#D69036" transform="translate(54,40)"/>
<path d="M0 0 C2.62187494 1.04874998 3.79371361 1.64931313 5.25 4.125 C5.4975 4.74375 5.745 5.3625 6 6 C5.01 6 4.02 6 3 6 C0 2.66666667 0 2.66666667 0 0 Z " fill="#C67930" transform="translate(89,32)"/>
</svg>
